:SAMPLES-PER-SECOND 30
:FULLY-SPECIFIED
:DEGREES
627
root  -21.8265 40.6428 -3.42773 -64.061 -84.78 57.1893
RightUpLeg  3.12485 -13.266 -13.5869
RightLeg  13.4723 5.3051 2.62799
RightFoot  -12.0937 -0.017679 9.83603
RightToes  0.00048216 0.542163 -0.142577
Spine  10.3333 -0.715727 2.76272
Spine1  8.57927 0.223706 -2.2375
HEad  -9.88839 -3.85495 -5.55032
LeftShoulder1  6.07493 -10.5226 -37.1823
LeftArm  -15.2273 19.9181 -18.3945
LeftForeArm  13.629 -5.48922 -2.77874
LeftHand  -0.25398 0.0180481 5.50724
RightShoulder  4.04225 7.44677 30.9578
RightArm  -20.8393 -12.4236 22.1764
RightForeArm  4.01983 9.6644 3.64198
RightHand  -1.2609 3.41797 -16.822
LeftUpLeg  -1.70408 15.7117 -1.96117
LeftLeg  14.4092 1.03441 -0.595773
LeftFoot  -6.49574 0.206617 -3.88491
LeftToes  1.06244e-005 4.65856e-005 -8.18505e-006
628
root  -21.7441 40.661 -3.68185 -61.7459 -85.538 54.8494
RightUpLeg  3.14996 -12.8288 -12.2003
RightLeg  13.0097 4.90989 2.53658
RightFoot  -11.8431 -0.0388677 9.45133
RightToes  0.00048216 0.542163 -0.142577
Spine  9.19749 -0.810948 2.38342
Spine1  8.09562 -0.277894 -1.19863
HEad  -8.82043 -1.35904 -6.22252
LeftShoulder1  5.28913 -9.66556 -34.0955
LeftArm  -15.1266 20.4473 -16.3223
LeftForeArm  12.0819 -4.32913 -2.48681
LeftHand  -0.25398 0.0180481 5.50724
RightShoulder  3.44292 6.52998 28.3062
RightArm  -24.606 -11.671 18.9967
RightForeArm  -1.28081 8.30346 2.68058
RightHand  -1.4385 4.06294 -17.8691
LeftUpLeg  0.47935 11.0915 -1.95976
LeftLeg  12.1161 6.01992 -0.92837
LeftFoot  -7.42269 0.0614724 -0.565161
LeftToes  1.06244e-005 4.65856e-005 -8.18505e-006
629
root  -21.6533 40.7197 -3.95328 -58.3834 -85.8364 51.3776
RightUpLeg  3.34617 -12.2577 -11.0618
RightLeg  12.3706 4.0314 2.25435
RightFoot  -11.3359 -0.0772169 8.43121
RightToes  0.00048216 0.542163 -0.142577
Spine  8.67537 -0.77896 0.863821
Spine1  7.17871 -0.839324 0.447383
HEad  -8.15363 0.396076 -5.95289
LeftShoulder1  4.41489 -8.63757 -30.2878
LeftArm  -15.9091 21.0097 -14.7633
LeftForeArm  10.7845 -4.59204 -2.04644
LeftHand  -0.25398 0.0180481 5.50724
RightShoulder  2.85949 5.56765 25.42
RightArm  -26.5419 -11.2592 15.8771
RightForeArm  -7.07891 8.42304 2.49436
RightHand  -1.63547 4.5427 -19.2858
LeftUpLeg  1.82568 6.42333 -2.06398
LeftLeg  9.94002 10.9212 -1.04036
LeftFoot  -6.99857 -0.0359597 2.03603
LeftToes  1.06244e-005 4.65856e-005 -8.18505e-006
630
root  -21.5325 40.7835 -4.25106 -55.9346 -85.5992 48.7481
RightUpLeg  3.39732 -11.6431 -10.3392
RightLeg  12.17 2.92293 1.86519
RightFoot  -10.9023 -0.102396 7.29698
RightToes  0.00048216 0.542163 -0.142577
Spine  8.72861 -0.669934 -1.1256
Spine1  6.15154 -1.21615 1.98371
HEad  -7.97461 1.19508 -4.87384
LeftShoulder1  3.59403 -7.57098 -26.285
LeftArm  -17.3738 21.0167 -13.1502
LeftForeArm  9.75691 -6.06688 -1.56808
LeftHand  -0.25398 0.0180481 5.50724
RightShoulder  2.35768 4.69304 22.5162
RightArm  -26.9772 -11.2815 13.1439
RightForeArm  -10.8762 8.88773 2.63067
RightHand  -1.92874 5.37405 -20.9527
LeftUpLeg  2.31828 4.98641 -1.77735
LeftLeg  8.69407 12.1108 -1.29324
LeftFoot  -5.5933 -0.0611951 1.94096
LeftToes  1.06244e-005 4.65856e-005 -8.18505e-006
631
root  -21.3985 40.8177 -4.52843 -54.6445 -85.2196 47.424
RightUpLeg  3.14487 -11.2907 -9.93256
RightLeg  12.3349 2.13906 1.62779
RightFoot  -10.809 -0.104441 6.63007
RightToes  0.00048216 0.542163 -0.142577
Spine  8.82924 -0.572814 -2.12918
Spine1  5.24068 -1.16605 2.14975
HEad  -8.05333 1.08833 -3.61647
LeftShoulder1  2.94635 -6.69002 -22.5697
LeftArm  -18.9568 20.1499 -10.8662
LeftForeArm  9.44915 -8.17092 -1.22245
LeftHand  -0.25398 0.0180481 5.50724
RightShoulder  1.90084 3.75999 19.7374
RightArm  -26.6175 -11.6535 10.8479
RightForeArm  -11.5431 8.78596 2.61888
RightHand  -2.21358 6.2749 -22.1667
LeftUpLeg  2.32134 5.56363 -1.10754
LeftLeg  8.14192 11.0767 -1.91482
LeftFoot  -4.50121 0.00293086 0.38925
LeftToes  1.06244e-005 4.65856e-005 -8.18505e-006
632
root  -21.2725 40.8256 -4.73038 -55.5264 -85.1916 48.3525
RightUpLeg  2.84336 -11.2906 -9.66055
RightLeg  12.4068 2.02545 1.70327
RightFoot  -10.8555 -0.100489 6.30447
RightToes  0.00048216 0.542163 -0.142577
Spine  8.86682 -0.489193 -1.66086
Spine1  4.41347 -0.707481 0.787441
HEad  -8.08986 0.60271 -2.79042
LeftShoulder1  2.43608 -5.99011 -19.1007
LeftArm  -20.7298 18.9247 -8.32172
LeftForeArm  10.1914 -10.7244 -1.02036
LeftHand  -0.25398 0.0180481 5.50724
RightShoulder  1.45877 2.65686 17.0407
RightArm  -25.8642 -11.8623 8.8549
RightForeArm  -11.0203 7.84901 2.46392
RightHand  -2.39372 6.84445 -22.8328
LeftUpLeg  2.30044 6.14704 -0.511046
LeftLeg  7.80472 10.4471 -2.46404
LeftFoot  -4.24767 0.0483372 -0.371281
LeftToes  1.06244e-005 4.65856e-005 -8.18505e-006
633
root  -21.1572 40.8408 -4.85908 -59.4914 -85.5004 52.2386
RightUpLeg  2.81127 -11.4025 -9.47798
RightLeg  12.1253 2.39721 1.94901
RightFoot  -10.696 -0.107267 6.13067
RightToes  0.00048216 0.542163 -0.142577
Spine  8.98584 -0.412017 -0.784827
Spine1  3.79771 -0.227065 -0.827584
HEad  -8.05824 0.47672 -2.64667
LeftShoulder1  1.94965 -5.13574 -15.7336
LeftArm  -23.5062 18.1167 -6.4
LeftForeArm  12.2693 -13.8681 -1.07662
LeftHand  -0.25398 0.0180481 5.50724
RightShoulder  1.07811 1.58131 14.3401
RightArm  -25.1337 -11.4905 7.10534
RightForeArm  -11.968 6.56802 2.40325
RightHand  -2.51925 7.13748 -23.4431
LeftUpLeg  2.51262 5.92645 -0.190317
LeftLeg  7.29018 11.1372 -2.73595
LeftFoot  -4.08529 0.0288162 -0.0673263
LeftToes  1.06244e-005 4.65856e-005 -8.18505e-006
634
root  -21.0545 40.8559 -4.95107 -63.6396 -85.8225 56.2726
RightUpLeg  2.82949 -11.411 -9.27451
RightLeg  11.8596 2.74694 2.11815
RightFoot  -10.4642 -0.118098 6.12481
RightToes  0.00048216 0.542163 -0.142577
Spine  8.98283 -0.432746 -0.50828
Spine1  3.63191 -0.118222 -1.41872
HEad  -8.04398 1.01464 -3.09243
LeftShoulder1  1.4614 -3.87182 -12.7078
LeftArm  -27.7082 17.8576 -5.28923
LeftForeArm  15.639 -17.2752 -1.67568
LeftHand  -0.25398 0.0180481 5.50724
RightShoulder  0.806868 0.789461 11.6904
RightArm  -24.8391 -10.7686 5.61557
RightForeArm  -14.9181 5.74868 2.52268
RightHand  -2.70324 7.50963 -24.3862
LeftUpLeg  2.5852 5.62265 0.00404643
LeftLeg  7.01916 11.9145 -2.71739
LeftFoot  -3.70895 0.0103858 0.184361
LeftToes  1.06244e-005 4.65856e-005 -8.18505e-006
635
root  -20.9689 40.8615 -5.03655 -65.2028 -86.0274 57.9146
RightUpLeg  2.57439 -11.2725 -8.93154
RightLeg  11.805 2.74377 2.13347
RightFoot  -10.2541 -0.126597 5.99253
RightToes  0.00048216 0.542163 -0.142577
Spine  8.66962 -0.54001 -0.894479
Spine1  3.72224 -0.346671 -0.984785
HEad  -7.92433 1.92105 -3.75663
LeftShoulder1  1.05192 -2.44765 -10.3387
LeftArm  -32.0576 17.7158 -4.45558
LeftForeArm  18.9378 -20.1227 -2.64419
LeftHand  -0.25398 0.0180481 5.50724
RightShoulder  0.628222 0.259817 9.34698
RightArm  -24.9548 -10.1863 4.32647
RightForeArm  -18.3397 5.76346 2.73313
RightHand  -3.01586 8.27041 -25.6371
LeftUpLeg  2.27965 5.57276 0.14277
LeftLeg  7.13125 12.0915 -2.4857
LeftFoot  -3.47136 0.0133799 0.106032
LeftToes  1.06244e-005 4.65856e-005 -8.18505e-006
636
root  -20.8953 40.8664 -5.11967 -66.9772 -86.2469 59.8995
RightUpLeg  2.10723 -11.0373 -8.4701
RightLeg  11.8219 2.54656 2.09105
RightFoot  -9.85197 -0.136084 5.34409
RightToes  0.00048216 0.542163 -0.142577
Spine  8.34285 -0.58329 -1.41612
Spine1  3.60539 -0.550626 -0.364912
HEad  -7.54253 2.80376 -4.14462
LeftShoulder1  0.783925 -1.37688 -8.52656
LeftArm  -34.9197 17.4219 -3.48328
LeftForeArm  20.4451 -21.8544 -3.35021
LeftHand  -0.25398 0.0180481 5.50724
RightShoulder  0.501389 -0.194817 7.62016
RightArm  -25.1472 -9.86824 3.19114
RightForeArm  -20.7009 6.296 2.93383
RightHand  -3.40071 9.27353 -26.8805
LeftUpLeg  1.88703 5.4137 0.212199
LeftLeg  7.22568 12.3334 -2.19246
LeftFoot  -3.42856 0.00883054 0.159754
LeftToes  1.06244e-005 4.65856e-005 -8.18505e-006
